<svg id="Component_15_1" data-name="Component 15 – 1" xmlns="http://www.w3.org/2000/svg" width="367.922" height="329.206" viewBox="0 0 367.922 329.206">
  <path id="blob-2" d="M225.539,202.142q-14.162,53.823-60.25,32.921T91.836,181.24Q64.472,148.319,81.755,96.324t70.332-48.075q53.049,3.919,70.332,51.994T225.539,202.142Z" transform="translate(-75.065 -39.875)" fill="rgba(107,255,71,0.89)"/>
  <path id="blob-3" d="M203.8,183.262q-5.041,20.38-8.882,50.427t-31.205,19.857q-27.365-10.19-48.728-2.352t-37.446-8.361q-16.083-16.2-32.646-34.75T24.009,161.838q-4.321-27.7,11.762-49.643t40.087-24.56a309.414,309.414,0,0,0,42.487-7.316,57.956,57.956,0,0,1,36.726,2.613,132.779,132.779,0,0,1,34.806,20.9q16.563,13.587,17.763,36.318A146.522,146.522,0,0,1,203.8,183.262Z" transform="translate(88.696 -78.478)" fill="rgba(71,175,255,0.92)"/>
  <path id="blob-4" d="M206.9,176.2a50.7,50.7,0,0,1-10.322,38.931q-13.2,17.244-31.445,37.1T121.207,268.7q-25.684-3.4-35.046-31.354t-28.085-42.85q-18.723-14.893-21.6-40.759a69.32,69.32,0,0,1,11.282-47.291Q61.917,85.018,81.6,72.738t41.287-11.758q21.6.523,37.926,13.064t32.646,24.821q16.323,12.28,13.442,33.966A163.986,163.986,0,0,0,206.9,176.2Z" transform="translate(10.801 60.013)" fill="rgba(233,255,71,0.85)"/>
  <path id="blob-5" d="M203.994,169.969q-10.562,17.767-14.4,42.85t-25.924,27.173a134.015,134.015,0,0,1-41.287-2.09A211.941,211.941,0,0,1,83.733,225.36Q64.29,217,42.686,199.493t-2.16-42.066q19.443-24.56,25.2-43.895A61.652,61.652,0,0,1,87.094,81.918,167.233,167.233,0,0,1,122.62,60.754q19.923-8.883,41.047-.784a240.828,240.828,0,0,1,43.207,22.209q22.084,14.109,14.883,42.066T203.994,169.969Z" transform="translate(144.394 64.864)" fill="rgba(233,71,255,0.9)"/>
</svg>
