<svg id="Component_15_1" data-name="Component 15 – 1" xmlns="http://www.w3.org/2000/svg" width="54" height="54" viewBox="0 0 54 54">
  <circle id="Ellipse_1" data-name="Ellipse 1" cx="27" cy="27" r="27" fill="#47afff"/>
  <path id="youjian" d="M54.537,125.44H35.755a2.47,2.47,0,0,0-2.475,2.475v14.213a2.47,2.47,0,0,0,2.475,2.475H54.537a2.47,2.47,0,0,0,2.475-2.475V127.915A2.47,2.47,0,0,0,54.537,125.44Zm-18.782,1.9H54.537a.589.589,0,0,1,.482.266l-9.873,7.005-9.873-7.005A.589.589,0,0,1,35.755,127.344ZM54.537,142.7H35.755a.569.569,0,0,1-.571-.571V129.882l9.416,6.675a.927.927,0,0,0,1.091,0l9.416-6.675v12.246A.569.569,0,0,1,54.537,142.7Z" transform="translate(-18.498 -108.021)" fill="#fff"/>
</svg>
