<svg id="Component_16_1" data-name="Component 16 – 1" xmlns="http://www.w3.org/2000/svg" width="54" height="54" viewBox="0 0 54 54">
  <circle id="Ellipse_17" data-name="Ellipse 17" cx="27" cy="27" r="27" fill="#c13584"/>
  <path id="Path_33" data-name="Path 33" d="M44,34.162c3.2,0,3.584.012,4.849.07a6.642,6.642,0,0,1,2.228.413,3.974,3.974,0,0,1,2.277,2.277,6.642,6.642,0,0,1,.413,2.228c.058,1.265.07,1.645.07,4.849s-.012,3.584-.07,4.849a6.64,6.64,0,0,1-.413,2.228,3.973,3.973,0,0,1-2.277,2.277,6.637,6.637,0,0,1-2.228.413c-1.265.058-1.645.07-4.849.07s-3.584-.012-4.849-.07a6.635,6.635,0,0,1-2.228-.413,3.974,3.974,0,0,1-2.277-2.277,6.64,6.64,0,0,1-.413-2.228c-.058-1.265-.07-1.645-.07-4.849s.012-3.584.07-4.849a6.642,6.642,0,0,1,.413-2.228,3.975,3.975,0,0,1,2.277-2.277,6.64,6.64,0,0,1,2.228-.413C40.416,34.174,40.8,34.162,44,34.162ZM44,32c-3.259,0-3.668.014-4.948.072a8.809,8.809,0,0,0-2.913.558,6.136,6.136,0,0,0-3.51,3.509,8.81,8.81,0,0,0-.558,2.913C32.014,40.332,32,40.741,32,44s.014,3.668.072,4.948a8.809,8.809,0,0,0,.558,2.913,6.135,6.135,0,0,0,3.51,3.509,8.8,8.8,0,0,0,2.913.558c1.28.058,1.689.072,4.948.072s3.668-.014,4.948-.072a8.8,8.8,0,0,0,2.913-.558,6.136,6.136,0,0,0,3.51-3.509,8.81,8.81,0,0,0,.558-2.913C55.986,47.668,56,47.259,56,44s-.014-3.668-.072-4.948a8.81,8.81,0,0,0-.558-2.913,6.137,6.137,0,0,0-3.51-3.509,8.809,8.809,0,0,0-2.913-.558C47.668,32.014,47.259,32,44,32Z" transform="translate(-17.252 -17)" fill="#fff"/>
  <path id="Path_34" data-name="Path 34" d="M44.006,37.843a6.162,6.162,0,1,0,6.162,6.162A6.162,6.162,0,0,0,44.006,37.843Zm0,10.162a4,4,0,1,1,4-4A4,4,0,0,1,44.006,48.006Z" transform="translate(-17.252 -17)" fill="#fff"/>
  <path id="Path_35" data-name="Path 35" d="M51.851,37.6a1.44,1.44,0,1,1-1.44-1.44A1.44,1.44,0,0,1,51.851,37.6Z" transform="translate(-17.252 -17)" fill="#fff"/>
</svg>
