<svg id="Component_17_1" data-name="Component 17 – 1" xmlns="http://www.w3.org/2000/svg" width="54" height="54" viewBox="0 0 54 54">
  <g id="Group_4" data-name="Group 4" transform="translate(-0.056)">
    <circle id="Ellipse_17" data-name="Ellipse 17" cx="27" cy="27" r="27" transform="translate(0.056)" fill="#0077b5"/>
  </g>
  <path id="linkedin-rect" d="M5.6.009a5.52,5.52,0,0,0-5.6,5.4V22.18a5.519,5.519,0,0,0,5.6,5.4H22.978a5.518,5.518,0,0,0,5.6-5.4V5.413a5.52,5.52,0,0,0-5.6-5.4Zm1.408,4.55A2.21,2.21,0,0,1,9.427,6.724,2.219,2.219,0,0,1,6.985,8.888H6.957A2.2,2.2,0,0,1,4.573,6.724a2.219,2.219,0,0,1,2.44-2.165Zm12.721,5.746c2.839,0,4.967,1.791,4.967,5.64V23.13H20.386v-6.7c0-1.684-.624-2.834-2.186-2.834a2.356,2.356,0,0,0-2.214,1.523,2.752,2.752,0,0,0-.142,1.016v7H11.53s.056-11.355,0-12.53h4.315v1.775a4.309,4.309,0,0,1,3.889-2.068Zm-14.906.3H9.142V23.13H4.828V10.6Z" transform="translate(12.709 13.204)" fill="#fff"/>
</svg>
